{
	"asset":{
		"generator":"Khronos glTF Blender I/O v4.5.47",
		"version":"2.0"
	},
	"scene":0,
	"scenes":[
		{
			"name":"Scene",
			"nodes":[
				1
			]
		}
	],
	"nodes":[
		{
			"mesh":0,
			"name":"tripo_node_42f4ddd6-e1b6-40b1-913e-9bab1024448b"
		},
		{
			"children":[
				0
			],
			"name":"root",
			"rotation":[
				0,
				0.7071068286895752,
				0,
				0.7071067094802856
			]
		}
	],
	"materials":[
		{
			"doubleSided":true,
			"name":"Material_0",
			"pbrMetallicRoughness":{
				"metallicFactor":0
			}
		}
	],
	"meshes":[
		{
			"name":"Mesh_0",
			"primitives":[
				{
					"attributes":{
						"POSITION":0,
						"NORMAL":1,
						"TEXCOORD_0":2
					},
					"indices":3,
					"material":0
				}
			]
		}
	],
	"accessors":[
		{
			"bufferView":0,
			"componentType":5126,
			"count":545122,
			"max":[
				0.0679168701171875,
				0.493865966796875,
				0.5
			],
			"min":[
				-0.0679168701171875,
				-0.493865966796875,
				-0.5
			],
			"type":"VEC3"
		},
		{
			"bufferView":1,
			"componentType":5126,
			"count":545122,
			"type":"VEC3"
		},
		{
			"bufferView":2,
			"componentType":5126,
			"count":545122,
			"type":"VEC2"
		},
		{
			"bufferView":3,
			"componentType":5125,
			"count":3000876,
			"type":"SCALAR"
		}
	],
	"bufferViews":[
		{
			"buffer":0,
			"byteLength":6541464,
			"byteOffset":0,
			"target":34962
		},
		{
			"buffer":0,
			"byteLength":6541464,
			"byteOffset":6541464,
			"target":34962
		},
		{
			"buffer":0,
			"byteLength":4360976,
			"byteOffset":13082928,
			"target":34962
		},
		{
			"buffer":0,
			"byteLength":12003504,
			"byteOffset":17443904,
			"target":34963
		}
	],
	"buffers":[
		{
			"byteLength":29447408,
			"uri":"logo3D_a.bin"
		}
	]
}
